<?xml version="1.0" encoding="utf-8"?>
<!-- Generator: Adobe Illustrator 16.0.0, SVG Export Plug-In . SVG Version: 6.00 Build 0)  -->
<!DOCTYPE svg PUBLIC "-//W3C//DTD SVG 1.1//EN" "http://www.w3.org/Graphics/SVG/1.1/DTD/svg11.dtd">
<svg version="1.1" id="Layer_1" xmlns="http://www.w3.org/2000/svg" xmlns:xlink="http://www.w3.org/1999/xlink" x="0px" y="0px"
	 width="309.546px" height="380.981px" viewBox="257.683 109.816 309.546 380.981"
	 enable-background="new 257.683 109.816 309.546 380.981" xml:space="preserve">
<path fill="#231F20" d="M555.323,109.816c-2.19,0-4.381,0.606-6.31,1.81L263.279,290.209c-3.477,2.179-5.596,5.988-5.596,10.096
	c0,4.107,2.119,7.918,5.596,10.097l285.734,178.584c3.679,2.285,8.298,2.429,12.084,0.31c3.786-2.096,6.132-6.084,6.132-10.418
	V121.709c0-4.322-2.346-8.311-6.132-10.418C559.287,110.316,557.311,109.816,555.323,109.816z M543.417,457.412L292.054,300.305
	L543.417,143.21V457.412z"/>
</svg>
