<?xml version="1.0" encoding="utf-8"?>
<!-- Generator: Adobe Illustrator 16.0.0, SVG Export Plug-In . SVG Version: 6.00 Build 0)  -->
<!DOCTYPE svg PUBLIC "-//W3C//DTD SVG 1.1 Tiny//EN" "http://www.w3.org/Graphics/SVG/1.1/DTD/svg11-tiny.dtd">
<svg version="1.1" baseProfile="tiny" id="Layer_1" xmlns="http://www.w3.org/2000/svg" xmlns:xlink="http://www.w3.org/1999/xlink"
	 x="0px" y="0px" width="450px" height="616.302px" viewBox="0 0 450 616.302" xml:space="preserve">
<g>
	<polygon fill="#43BFC0" points="449.5,615.5 225.031,505.5 0.5,615.5 0.5,0.5 449.5,0.5 	"/>
	<g>
		<path d="M264.438,339.203l-35.291-81.229h-35.291v81.229h-43.809V120.158H261.7c25.556,0,43.2,17.646,43.2,43.201v51.415
			c0,20.688-11.561,36.204-29.814,41.375l36.508,83.055H264.438z M261.092,171.877c0-6.693-3.65-10.344-10.344-10.344h-56.892
			v55.674h56.892c6.693,0,10.344-3.651,10.344-10.344V171.877z"/>
	</g>
	<rect x="150.016" y="389.484" width="161.625" height="13.5"/>
</g>
</svg>
