<?xml version="1.0" encoding="utf-8"?>
<!-- Generator: Adobe Illustrator 16.0.0, SVG Export Plug-In . SVG Version: 6.00 Build 0)  -->
<!DOCTYPE svg PUBLIC "-//W3C//DTD SVG 1.1 Tiny//EN" "http://www.w3.org/Graphics/SVG/1.1/DTD/svg11-tiny.dtd">
<svg version="1.1" baseProfile="tiny" id="Layer_1" xmlns="http://www.w3.org/2000/svg" xmlns:xlink="http://www.w3.org/1999/xlink"
	 x="0px" y="0px" width="249.159px" height="20.833px" viewBox="0 -0.211 249.159 20.833" xml:space="preserve">
<g>
	<path fill="#333333" d="M10.289,20.578C4.608,20.578,0,15.97,0,10.289C0,4.608,4.608,0,10.289,0
		c5.682,0,10.289,4.608,10.289,10.289C20.578,15.97,15.97,20.578,10.289,20.578z M10.53,8.762c-4.528,1.353-8.869,1.246-9.017,1.246
		C1.5,10.102,1.5,10.195,1.5,10.289c0,2.251,0.857,4.314,2.25,5.868c2.398-4.274,7.142-5.801,7.142-5.801
		c0.121-0.04,0.24-0.067,0.348-0.107C11.026,9.753,10.785,9.257,10.53,8.762z M6.538,2.345C4.086,3.497,2.264,5.761,1.688,8.48
		c0.228,0,3.897,0.04,8.119-1.072C8.279,4.703,6.658,2.505,6.538,2.345z M11.843,11.709c-0.014,0-0.041,0.014-0.054,0.014
		c0,0-5.211,1.822-6.898,5.493c-0.081-0.067-0.201-0.147-0.201-0.147c1.526,1.246,3.47,2.011,5.6,2.011
		c1.219,0,2.371-0.254,3.43-0.697C13.585,17.604,13.076,14.924,11.843,11.709z M8.159,1.769c0,0,0.014-0.014,0.027-0.014
		C8.172,1.755,8.172,1.755,8.159,1.769z M10.289,1.5c-0.71,0-1.407,0.094-2.077,0.254c0.135,0.174,1.795,2.358,3.296,5.118
		c3.31-1.232,4.556-3.135,4.582-3.175C14.549,2.331,12.513,1.5,10.289,1.5z M17.082,4.703c-0.026,0.026-1.434,2.063-4.902,3.483
		c0.2,0.416,0.401,0.844,0.589,1.273c0.066,0.147,0.121,0.308,0.188,0.456c3.028-0.389,6.017,0.268,6.123,0.281
		C19.051,8.119,18.314,6.203,17.082,4.703z M13.491,11.294c1.152,3.175,1.621,5.761,1.715,6.283
		c1.969-1.326,3.362-3.443,3.766-5.896C18.783,11.629,16.331,10.852,13.491,11.294z"/>
	<path fill="#333333" d="M65.303,5.989c0.013,0.188,0.013,0.375,0.013,0.562c0,5.721-4.354,12.312-12.312,12.312
		c-2.452,0-4.729-0.711-6.645-1.942c0.349,0.04,0.684,0.054,1.045,0.054c2.022,0,3.885-0.684,5.373-1.85
		c-1.902-0.04-3.497-1.286-4.046-3.001c0.268,0.04,0.536,0.067,0.816,0.067c0.39,0,0.777-0.055,1.14-0.147
		c-1.983-0.401-3.471-2.144-3.471-4.247c0-0.014,0-0.041,0-0.054c0.576,0.321,1.246,0.522,1.956,0.549
		c-1.166-0.777-1.929-2.104-1.929-3.604c0-0.804,0.214-1.541,0.589-2.184c2.13,2.626,5.332,4.341,8.923,4.528
		c-0.066-0.322-0.106-0.657-0.106-0.992c0-2.385,1.929-4.327,4.328-4.327c1.246,0,2.371,0.522,3.162,1.367
		c0.978-0.188,1.916-0.549,2.745-1.045c-0.32,1.005-1.004,1.849-1.901,2.385c0.871-0.094,1.715-0.335,2.492-0.67
		C66.884,4.608,66.147,5.372,65.303,5.989z"/>
	<path fill="#333333" d="M106.799,20.057c-0.521,0.094-0.695-0.229-0.695-0.496c0-0.336,0-1.447,0-2.828
		c0-0.963-0.322-1.58-0.697-1.901c2.291-0.254,4.702-1.125,4.702-5.078c0-1.125-0.402-2.049-1.059-2.76
		c0.107-0.268,0.456-1.312-0.106-2.733c-0.857-0.268-2.827,1.059-2.827,1.059c-0.817-0.228-1.702-0.349-2.572-0.349
		s-1.755,0.121-2.571,0.349c0,0-1.97-1.327-2.841-1.059c-0.549,1.42-0.2,2.465-0.094,2.733c-0.656,0.71-1.058,1.635-1.058,2.76
		c0,3.938,2.397,4.823,4.688,5.078c-0.295,0.269-0.562,0.71-0.656,1.38c-0.59,0.268-2.091,0.725-2.987-0.857
		c-0.563-0.978-1.581-1.058-1.581-1.058c-1.005-0.014-0.067,0.629-0.067,0.629c0.67,0.308,1.14,1.5,1.14,1.5
		c0.603,1.835,3.47,1.22,3.47,1.22c0,0.856,0.014,1.674,0.014,1.916c0,0.268-0.188,0.588-0.71,0.496
		c-4.086-1.367-7.034-5.226-7.034-9.768C93.254,4.608,97.863,0,103.543,0c5.681,0,10.289,4.608,10.289,10.289
		C113.833,14.831,110.885,18.689,106.799,20.057z"/>
	<path fill="#333333" d="M159.603,17.939c0,1.446-1.192,2.639-2.64,2.639h-15.3c-1.447,0-2.639-1.192-2.639-2.639v-15.3
		c0-1.447,1.191-2.639,2.639-2.639h15.3c1.447,0,2.64,1.192,2.64,2.639V17.939z M157.271,8.708h-1.81
		c0.174,0.549,0.269,1.152,0.269,1.755c0,3.43-2.867,6.203-6.404,6.203c-3.523,0-6.39-2.773-6.39-6.203
		c0-0.603,0.094-1.206,0.268-1.755h-1.889v8.683c0,0.455,0.361,0.816,0.816,0.816h14.321c0.456,0,0.817-0.362,0.817-0.816
		L157.271,8.708L157.271,8.708z M149.327,6.243c-2.277,0-4.126,1.795-4.126,4.006c0,2.21,1.849,4.006,4.126,4.006
		c2.291,0,4.14-1.795,4.14-4.006S151.618,6.243,149.327,6.243z M157.271,3.215c0-0.509-0.416-0.924-0.924-0.924h-2.331
		c-0.51,0-0.926,0.415-0.926,0.924v2.21c0,0.509,0.416,0.924,0.926,0.924h2.331c0.509,0,0.924-0.415,0.924-0.924V3.215z"/>
</g>
<g>
	<path fill="#333333" d="M204.621,16.746c0,2.127-1.727,3.854-3.854,3.854h-12.846c-2.128,0-3.854-1.727-3.854-3.854V3.899
		c0-2.128,1.727-3.854,3.854-3.854h12.846c2.128,0,3.854,1.726,3.854,3.854V16.746z M201.864,7.686h-2.649V6.228
		c0-0.763,0.08-1.178,1.164-1.178h1.472V2.119h-2.342c-2.81,0-3.8,1.418-3.8,3.814v1.753h-1.753v2.931h1.753v8.498h3.506v-8.498
		h2.342L201.864,7.686z"/>
</g>
<g>
	<path fill="#333333" d="M241.75,0.094l-1.661,0.972h-1.66c1.218,0.762,1.833,2.25,1.833,3.628c0,3.259-2.755,3.505-2.755,5.128
		c0,1.586,3.689,2.214,3.689,5.658c0,1.414-0.677,2.558-1.722,3.468c-1.415,1.218-3.346,1.611-5.166,1.611
		c-2.3,0-5.62-0.984-5.62-3.837c0-0.578,0.197-1.144,0.455-1.66c1.095-2.214,4.514-2.78,6.715-2.842
		c-0.405-0.528-0.787-1.144-0.787-1.832c0-0.406,0.147-0.676,0.271-1.058c-0.295,0.037-0.578,0.062-0.86,0.062
		c-2.387,0-4.452-1.759-4.452-4.231c0-2.336,1.808-4.329,4.046-4.821c0.75-0.16,1.525-0.246,2.3-0.246H241.75z M236.596,12.982
		c-0.209-0.024-0.406-0.024-0.615-0.024c-2.017,0-5.018,0.64-5.018,3.197c0,2.361,2.656,3.271,4.624,3.271
		c1.833,0,3.874-0.737,3.874-2.89C239.462,14.815,237.85,13.855,236.596,12.982z M234.702,0.979c-1.61,0-2.397,1.426-2.397,2.877
		c0,1.87,1.229,4.796,3.419,4.796c1.685,0,2.263-1.217,2.263-2.718C237.986,4.066,236.977,0.979,234.702,0.979z M249.153,4.816
		h-3.148v3.148h-1.574V4.816h-3.148V3.242h3.148V0.094h1.574v3.148h3.148V4.816z"/>
</g>
</svg>
